# xmcd
#
# Track frame offsets: 
#        150
#        19037
#        40137
#        59947
#        78722
#        96702
#        116234
#        135999
#        152861
#        170481
#
# Disc length: 2532 seconds
#
# Revision: 0
# Processed by: cddbd v1.5.2PL0 Copyright (c) Steve Scherf et al.
# Submitted via: ExactAudioCopy v0.99pb3
#
DISCID=8f09e20a
DTITLE=พร  อภิรดี - ผ้าเช็ดแผลใจ
DYEAR=2008
DGENRE=Country
TTITLE0=ปิดเครื่องเคลียร์ใจ
TTITLE1=เกือบฮักแฟนเขา
TTITLE2=น้อยใจแม่ย่า
TTITLE3=ฟ้องจันทร์วันอ้ายแต่ง
TTITLE4=ซ่อมใจในกรุง
TTITLE5=ผ้าเช็ดแผลใจ
TTITLE6=แฟนเก่าสารคาม
TTITLE7=ฮักอ้ายหมดใจ
TTITLE8=ตั๋วให้ดีใจ
TTITLE9=วอนลมสัญญาใจ
EXTD=
EXTT0=
EXTT1=
EXTT2=
EXTT3=
EXTT4=
EXTT5=
EXTT6=
EXTT7=
EXTT8=
EXTT9=
PLAYORDER=
